<mxfile host="app.diagrams.net" modified="2023-08-23T21:49:42.747Z" agent="Mozilla/5.0 (X11; Ubuntu; Linux x86_64; rv:109.0) Gecko/20100101 Firefox/116.0" etag="XA82ZIcv6YqT_oEAX9N7" version="21.6.8" type="device">
  <diagram name="Seite-1" id="LmcvWImrs5uPe_n25892">
    <mxGraphModel dx="652" dy="795" grid="1" gridSize="10" guides="1" tooltips="1" connect="1" arrows="1" fold="1" page="1" pageScale="1" pageWidth="827" pageHeight="1169" math="0" shadow="0">
      <root>
        <mxCell id="0" />
        <mxCell id="1" parent="0" />
        <mxCell id="fK3oxpIVK3-_zWHMPe-f-1" value="" style="whiteSpace=wrap;html=1;aspect=fixed;" parent="1" vertex="1">
          <mxGeometry x="159" y="120" width="40" height="40" as="geometry" />
        </mxCell>
        <mxCell id="fK3oxpIVK3-_zWHMPe-f-4" value="" style="whiteSpace=wrap;html=1;aspect=fixed;" parent="1" vertex="1">
          <mxGeometry x="159" y="160" width="40" height="40" as="geometry" />
        </mxCell>
        <mxCell id="fK3oxpIVK3-_zWHMPe-f-5" value="" style="whiteSpace=wrap;html=1;aspect=fixed;" parent="1" vertex="1">
          <mxGeometry x="159" y="200" width="40" height="40" as="geometry" />
        </mxCell>
        <mxCell id="fK3oxpIVK3-_zWHMPe-f-6" value="" style="whiteSpace=wrap;html=1;aspect=fixed;" parent="1" vertex="1">
          <mxGeometry x="159" y="240" width="40" height="40" as="geometry" />
        </mxCell>
        <mxCell id="fK3oxpIVK3-_zWHMPe-f-7" value="" style="whiteSpace=wrap;html=1;aspect=fixed;" parent="1" vertex="1">
          <mxGeometry x="199" y="120" width="40" height="40" as="geometry" />
        </mxCell>
        <mxCell id="fK3oxpIVK3-_zWHMPe-f-8" value="" style="whiteSpace=wrap;html=1;aspect=fixed;" parent="1" vertex="1">
          <mxGeometry x="199" y="160" width="40" height="40" as="geometry" />
        </mxCell>
        <mxCell id="fK3oxpIVK3-_zWHMPe-f-9" value="" style="whiteSpace=wrap;html=1;aspect=fixed;" parent="1" vertex="1">
          <mxGeometry x="199" y="200" width="40" height="40" as="geometry" />
        </mxCell>
        <mxCell id="fK3oxpIVK3-_zWHMPe-f-10" value="" style="whiteSpace=wrap;html=1;aspect=fixed;" parent="1" vertex="1">
          <mxGeometry x="199" y="240" width="40" height="40" as="geometry" />
        </mxCell>
        <mxCell id="fK3oxpIVK3-_zWHMPe-f-11" value="" style="whiteSpace=wrap;html=1;aspect=fixed;" parent="1" vertex="1">
          <mxGeometry x="239" y="120" width="40" height="40" as="geometry" />
        </mxCell>
        <mxCell id="fK3oxpIVK3-_zWHMPe-f-12" value="" style="whiteSpace=wrap;html=1;aspect=fixed;" parent="1" vertex="1">
          <mxGeometry x="239" y="160" width="40" height="40" as="geometry" />
        </mxCell>
        <mxCell id="fK3oxpIVK3-_zWHMPe-f-13" value="" style="whiteSpace=wrap;html=1;aspect=fixed;" parent="1" vertex="1">
          <mxGeometry x="239" y="200" width="40" height="40" as="geometry" />
        </mxCell>
        <mxCell id="fK3oxpIVK3-_zWHMPe-f-14" value="" style="whiteSpace=wrap;html=1;aspect=fixed;" parent="1" vertex="1">
          <mxGeometry x="239" y="240" width="40" height="40" as="geometry" />
        </mxCell>
        <mxCell id="fK3oxpIVK3-_zWHMPe-f-16" value="" style="endArrow=classic;html=1;rounded=0;fillColor=#f8cecc;strokeColor=#b85450;" parent="1" edge="1">
          <mxGeometry width="50" height="50" relative="1" as="geometry">
            <mxPoint x="178.71" y="130" as="sourcePoint" />
            <mxPoint x="178.71" y="160" as="targetPoint" />
          </mxGeometry>
        </mxCell>
        <mxCell id="fK3oxpIVK3-_zWHMPe-f-17" value="" style="endArrow=classic;html=1;rounded=0;strokeColor=#6c8ebf;jumpStyle=none;fillColor=#dae8fc;" parent="1" edge="1">
          <mxGeometry width="50" height="50" relative="1" as="geometry">
            <mxPoint x="198.71" y="200" as="sourcePoint" />
            <mxPoint x="218.71" y="130" as="targetPoint" />
          </mxGeometry>
        </mxCell>
        <mxCell id="fK3oxpIVK3-_zWHMPe-f-18" value="" style="endArrow=classic;html=1;rounded=0;fillColor=#f8cecc;strokeColor=#b85450;" parent="1" edge="1">
          <mxGeometry width="50" height="50" relative="1" as="geometry">
            <mxPoint x="178.71" y="160" as="sourcePoint" />
            <mxPoint x="178.71" y="200" as="targetPoint" />
          </mxGeometry>
        </mxCell>
        <mxCell id="fK3oxpIVK3-_zWHMPe-f-19" value="" style="endArrow=classic;html=1;rounded=0;fillColor=#f8cecc;strokeColor=#b85450;" parent="1" edge="1">
          <mxGeometry width="50" height="50" relative="1" as="geometry">
            <mxPoint x="178.71" y="200" as="sourcePoint" />
            <mxPoint x="178.71" y="240" as="targetPoint" />
          </mxGeometry>
        </mxCell>
        <mxCell id="fK3oxpIVK3-_zWHMPe-f-20" value="" style="endArrow=classic;html=1;rounded=0;fillColor=#f8cecc;strokeColor=#b85450;" parent="1" edge="1">
          <mxGeometry width="50" height="50" relative="1" as="geometry">
            <mxPoint x="178.71" y="240" as="sourcePoint" />
            <mxPoint x="178.71" y="270" as="targetPoint" />
          </mxGeometry>
        </mxCell>
        <mxCell id="fK3oxpIVK3-_zWHMPe-f-21" value="" style="endArrow=classic;html=1;rounded=0;fillColor=#dae8fc;strokeColor=#6c8ebf;" parent="1" edge="1">
          <mxGeometry width="50" height="50" relative="1" as="geometry">
            <mxPoint x="218.71" y="130" as="sourcePoint" />
            <mxPoint x="218.71" y="160" as="targetPoint" />
          </mxGeometry>
        </mxCell>
        <mxCell id="fK3oxpIVK3-_zWHMPe-f-22" value="" style="endArrow=classic;html=1;rounded=0;fillColor=#dae8fc;strokeColor=#6c8ebf;" parent="1" edge="1">
          <mxGeometry width="50" height="50" relative="1" as="geometry">
            <mxPoint x="218.71" y="160" as="sourcePoint" />
            <mxPoint x="218.71" y="200" as="targetPoint" />
          </mxGeometry>
        </mxCell>
        <mxCell id="fK3oxpIVK3-_zWHMPe-f-23" value="" style="endArrow=classic;html=1;rounded=0;fillColor=#dae8fc;strokeColor=#6c8ebf;" parent="1" edge="1">
          <mxGeometry width="50" height="50" relative="1" as="geometry">
            <mxPoint x="218.71" y="200" as="sourcePoint" />
            <mxPoint x="218.71" y="240" as="targetPoint" />
          </mxGeometry>
        </mxCell>
        <mxCell id="fK3oxpIVK3-_zWHMPe-f-24" value="" style="endArrow=classic;html=1;rounded=0;fillColor=#dae8fc;strokeColor=#6c8ebf;" parent="1" edge="1">
          <mxGeometry width="50" height="50" relative="1" as="geometry">
            <mxPoint x="218.71" y="240" as="sourcePoint" />
            <mxPoint x="218.71" y="270" as="targetPoint" />
          </mxGeometry>
        </mxCell>
        <mxCell id="fK3oxpIVK3-_zWHMPe-f-25" value="" style="endArrow=classic;html=1;rounded=0;fillColor=#d5e8d4;strokeColor=#82b366;" parent="1" edge="1">
          <mxGeometry width="50" height="50" relative="1" as="geometry">
            <mxPoint x="238.71" y="200" as="sourcePoint" />
            <mxPoint x="258.71000000000004" y="130" as="targetPoint" />
          </mxGeometry>
        </mxCell>
        <mxCell id="fK3oxpIVK3-_zWHMPe-f-26" value="" style="endArrow=classic;html=1;rounded=0;fillColor=#d5e8d4;strokeColor=#82b366;" parent="1" edge="1">
          <mxGeometry width="50" height="50" relative="1" as="geometry">
            <mxPoint x="258.71000000000004" y="130" as="sourcePoint" />
            <mxPoint x="258.71000000000004" y="160" as="targetPoint" />
          </mxGeometry>
        </mxCell>
        <mxCell id="fK3oxpIVK3-_zWHMPe-f-27" value="" style="endArrow=classic;html=1;rounded=0;fillColor=#d5e8d4;strokeColor=#82b366;" parent="1" edge="1">
          <mxGeometry width="50" height="50" relative="1" as="geometry">
            <mxPoint x="258.71000000000004" y="160" as="sourcePoint" />
            <mxPoint x="258.71000000000004" y="200" as="targetPoint" />
          </mxGeometry>
        </mxCell>
        <mxCell id="fK3oxpIVK3-_zWHMPe-f-28" value="" style="endArrow=classic;html=1;rounded=0;fillColor=#d5e8d4;strokeColor=#82b366;" parent="1" edge="1">
          <mxGeometry width="50" height="50" relative="1" as="geometry">
            <mxPoint x="258.71000000000004" y="200" as="sourcePoint" />
            <mxPoint x="258.71000000000004" y="240" as="targetPoint" />
          </mxGeometry>
        </mxCell>
        <mxCell id="fK3oxpIVK3-_zWHMPe-f-29" value="" style="endArrow=classic;html=1;rounded=0;fillColor=#d5e8d4;strokeColor=#82b366;" parent="1" edge="1">
          <mxGeometry width="50" height="50" relative="1" as="geometry">
            <mxPoint x="258.71000000000004" y="240" as="sourcePoint" />
            <mxPoint x="258.71000000000004" y="270" as="targetPoint" />
          </mxGeometry>
        </mxCell>
        <mxCell id="fK3oxpIVK3-_zWHMPe-f-30" value="" style="endArrow=none;html=1;rounded=0;fillColor=#f8cecc;strokeColor=#b85450;" parent="1" edge="1">
          <mxGeometry width="50" height="50" relative="1" as="geometry">
            <mxPoint x="178.71" y="270" as="sourcePoint" />
            <mxPoint x="198.71" y="200" as="targetPoint" />
          </mxGeometry>
        </mxCell>
        <mxCell id="fK3oxpIVK3-_zWHMPe-f-31" value="" style="endArrow=none;html=1;rounded=0;fillColor=#dae8fc;strokeColor=#6c8ebf;" parent="1" edge="1">
          <mxGeometry width="50" height="50" relative="1" as="geometry">
            <mxPoint x="218.71" y="270" as="sourcePoint" />
            <mxPoint x="238.71" y="200" as="targetPoint" />
          </mxGeometry>
        </mxCell>
      </root>
    </mxGraphModel>
  </diagram>
</mxfile>
